HIERARCHY
ROOT Hips
{
	OFFSET -0.001795 -0.223333 0.028219
	CHANNELS 6 Xposition Yposition Zposition Zrotation Yrotation Xrotation 
	JOINT LeftUpLeg
	{
		OFFSET 0.069520 -0.091406 -0.006815
		CHANNELS 3 Zrotation Yrotation Xrotation
		JOINT LeftLeg
		{
			OFFSET 0.034277 -0.375199 -0.004496
			CHANNELS 3 Zrotation Yrotation Xrotation
			JOINT LeftFoot
			{
				OFFSET -0.013596 -0.397961 -0.043693
				CHANNELS 3 Zrotation Yrotation Xrotation
				JOINT LeftToe
				{
					OFFSET 0.026358 -0.055791 0.119288
					CHANNELS 3 Zrotation Yrotation Xrotation
					End Site
					{
						OFFSET 0.000000 0.000000 0.000000
					}
				}
			}
		}
	}
	JOINT RightUpLeg
	{
		OFFSET -0.067670 -0.090522 -0.004320
		CHANNELS 3 Zrotation Yrotation Xrotation
		JOINT RightLeg
		{
			OFFSET -0.038290 -0.382569 -0.008850
			CHANNELS 3 Zrotation Yrotation Xrotation
			JOINT RightFoot
			{
				OFFSET 0.015774 -0.398415 -0.042312
				CHANNELS 3 Zrotation Yrotation Xrotation
				JOINT RightToe
				{
					OFFSET -0.025372 -0.048144 0.123348
					CHANNELS 3 Zrotation Yrotation Xrotation
					End Site
					{
						OFFSET 0.000000 0.000000 0.000000
					}
				}
			}
		}
	}
	JOINT Spine
	{
		OFFSET -0.002533 0.108963 -0.026696
		CHANNELS 3 Zrotation Yrotation Xrotation
		JOINT Spine1
		{
			OFFSET 0.005487 0.135180 0.001092
			CHANNELS 3 Zrotation Yrotation Xrotation
			JOINT Spine2
			{
				OFFSET 0.001457 0.052922 0.025425
				CHANNELS 3 Zrotation Yrotation Xrotation
				JOINT Neck
				{
					OFFSET -0.002778 0.213870 -0.042857
					CHANNELS 3 Zrotation Yrotation Xrotation
					JOINT Head
					{
						OFFSET 0.005152 0.064970 0.051349
						CHANNELS 3 Zrotation Yrotation Xrotation
						End Site
						{
							OFFSET 0.000000 0.000000 0.000000
						}
					}
				}
				JOINT LeftShoulder
				{
					OFFSET 0.078845 0.121749 -0.034090
					CHANNELS 3 Zrotation Yrotation Xrotation
					JOINT LeftArm
					{
						OFFSET 0.090977 0.030469 -0.008868
						CHANNELS 3 Zrotation Yrotation Xrotation
						JOINT LeftForeArm
						{
							OFFSET 0.259612 -0.012772 -0.027456
							CHANNELS 3 Zrotation Yrotation Xrotation
							JOINT LeftHand
							{
								OFFSET 0.249234 0.008986 -0.001171
								CHANNELS 3 Zrotation Yrotation Xrotation
								End Site
								{
									OFFSET 0.000000 0.000000 0.000000
								}
							}
						}
					}
				}
				JOINT RightShoulder
				{
					OFFSET -0.081759 0.118833 -0.038615
					CHANNELS 3 Zrotation Yrotation Xrotation
					JOINT RightArm
					{
						OFFSET -0.096012 0.032551 -0.009143
						CHANNELS 3 Zrotation Yrotation Xrotation
						JOINT RightForeArm
						{
							OFFSET -0.253742 -0.013329 -0.021401
							CHANNELS 3 Zrotation Yrotation Xrotation
							JOINT RightHand
							{
								OFFSET -0.255298 0.007772 -0.005559
								CHANNELS 3 Zrotation Yrotation Xrotation
								End Site
								{
									OFFSET 0.000000 0.000000 0.000000
								}
							}
						}
					}
				}
			}
		}
	}
}
MOTION
Frames: 7
Frame Time: 0.050000
-0.061634 0.951584 0.022240 0.890689 0.786271 5.451946 14.848152 -0.155968 -6.296425 -2.808564 0.344144 -4.860640 4.711536 15.041262 34.365790 0.000000 0.000000 0.000000 -5.448876 0.763856 -11.154928 4.857656 -0.523977 2.094858 -8.280931 -20.154496 16.142210 0.000000 0.000000 0.000000 8.505635 -4.397019 34.071024 9.377817 -2.326688 -17.269356 3.005754 -0.858633 24.190018 1.004380 0.307593 -17.717004 0.000000 0.000000 0.000000 -24.784769 -14.947234 7.872446 -41.630658 -19.643988 -0.369380 -54.435640 -73.259994 47.177531 0.000000 0.000000 0.000000 10.660803 20.260680 8.561060 36.948457 14.869069 -0.933769 50.143236 74.267413 42.439010 0.000000 0.000000 0.000000 
-0.065442 0.951337 0.021955 0.781486 1.090970 5.440359 15.222033 -0.162046 -6.242782 -2.470678 0.322284 -4.968525 3.692530 14.013305 34.221682 0.000000 0.000000 0.000000 -4.908290 0.791552 -11.120123 4.570171 -0.491863 2.092356 -8.459232 -20.416235 16.019073 0.000000 0.000000 0.000000 8.576852 -4.511424 34.465817 9.236592 -2.229863 -17.700588 3.355907 -0.897051 24.474946 1.425747 0.036631 -17.873913 0.000000 0.000000 0.000000 -24.700914 -15.223942 8.016565 -42.231831 -20.744662 0.005141 -54.319522 -73.460864 47.308134 0.000000 0.000000 0.000000 10.332324 20.397778 8.592392 36.994007 15.680308 -0.731995 47.609679 74.672181 40.691102 0.000000 0.000000 0.000000 
-0.068683 0.951131 0.020345 0.804732 1.430317 5.601531 15.679288 -0.143600 -6.891523 -2.360981 0.309637 -4.663741 2.409747 12.821368 34.950685 0.000000 0.000000 0.000000 -4.586494 0.847147 -11.798078 4.319119 -0.463830 2.873465 -8.703920 -20.783377 15.929063 0.000000 0.000000 0.000000 8.435177 -4.557807 34.816155 9.263843 -2.188577 -18.084804 3.285646 -0.863024 24.977700 1.513925 0.027560 -18.279406 0.000000 0.000000 0.000000 -24.511654 -15.387333 8.051802 -42.833297 -22.848273 0.734467 -48.234642 -74.050187 42.740835 0.000000 0.000000 0.000000 10.413639 21.181028 9.002043 37.054925 16.843425 -0.438607 43.276739 75.522504 37.821578 0.000000 0.000000 0.000000 
-0.071365 0.951257 0.017488 0.803471 1.990924 5.805145 15.993219 -0.140492 -7.538919 -2.030958 0.285257 -4.620431 0.950718 11.481053 35.499161 0.000000 0.000000 0.000000 -4.141328 0.904729 -12.352171 3.823318 -0.402299 3.256394 -9.029288 -21.249194 16.159101 0.000000 0.000000 0.000000 8.221983 -4.606954 35.152318 9.205053 -2.161127 -18.036965 3.643640 -0.541206 24.926188 1.616906 0.004074 -17.828938 0.000000 0.000000 0.000000 -24.656628 -16.423397 8.515747 -42.773018 -24.927877 1.507381 -37.463263 -74.865604 34.313624 0.000000 0.000000 0.000000 10.082416 21.713001 9.282060 37.599073 18.641185 0.093870 35.011601 76.219959 31.731281 0.000000 0.000000 0.000000 
-0.073810 0.951096 0.013503 0.937972 2.810350 5.788434 16.309400 -0.146614 -8.113912 -2.290834 0.295220 -4.437595 -0.073017 10.548608 35.453097 0.000000 0.000000 0.000000 -3.903920 0.955393 -13.134170 3.398507 -0.345041 4.416351 -9.525371 -21.956172 16.342848 0.000000 0.000000 0.000000 7.537989 -4.518808 35.525041 9.700002 -2.269435 -18.219247 3.630541 -0.610117 25.239658 0.941323 0.459170 -17.303776 0.000000 0.000000 0.000000 -24.643630 -17.650953 9.169858 -41.895887 -28.284453 2.579780 -14.052443 -73.703083 15.383859 0.000000 0.000000 0.000000 9.769022 23.245282 9.966485 37.494752 21.043557 0.770477 20.098163 76.208815 19.881396 0.000000 0.000000 0.000000 
-0.075832 0.950590 0.009138 0.743317 3.599828 5.624659 16.625035 -0.151802 -8.584289 -2.116354 0.277085 -4.196884 -0.782372 9.896706 35.186105 0.000000 0.000000 0.000000 -3.133798 1.043459 -13.692468 2.619005 -0.225107 5.383153 -9.991574 -22.607535 16.590150 0.000000 0.000000 0.000000 6.843276 -4.428427 35.940261 10.109662 -2.404144 -17.996075 4.008013 -0.193561 24.994890 -0.088617 1.229516 -16.420960 0.000000 0.000000 0.000000 -23.851178 -18.992619 9.619315 -39.833917 -31.473823 3.441005 6.600320 -69.397005 -0.410162 0.000000 0.000000 0.000000 8.999527 24.471364 10.463999 37.898462 24.016047 1.726026 5.633862 75.071520 8.599908 0.000000 0.000000 0.000000 
-0.077202 0.949955 0.004705 0.557538 4.636041 5.300170 16.962845 -0.169536 -8.984695 -2.306656 0.281253 -3.972661 -1.130931 9.634284 34.775182 0.000000 0.000000 0.000000 -2.990538 1.072012 -14.256321 2.842484 -0.265422 6.684583 -10.590868 -23.425264 16.916547 0.000000 0.000000 0.000000 6.075924 -4.361207 36.530493 10.598862 -2.557878 -17.814429 4.479014 -0.118972 24.708367 -0.725296 1.656430 -14.801852 0.000000 0.000000 0.000000 -22.305783 -20.157757 9.928864 -37.847921 -34.975984 4.280940 19.862609 -61.952059 -8.499482 0.000000 0.000000 0.000000 7.725528 26.175638 10.979702 39.209182 27.404065 3.032052 -6.086350 72.791335 -0.106247 0.000000 0.000000 0.000000 
